<svg width="48" height="48" viewBox="0 0 48 48" fill="none" xmlns="http://www.w3.org/2000/svg">
<rect width="48" height="48" rx="24" fill="#BDDFB4"/>
<path d="M27.7017 28.7304V17.0981C27.7017 16.1513 26.9342 15.3838 25.9874 15.3838H14.9194C13.9726 15.3838 13.2051 16.1513 13.2051 17.0981V28.4563C13.2051 29.4031 13.9726 30.1706 14.9194 30.1706H16.2051M34.7969 23.4965H27.7041M32.4899 29.8507H33.0809C34.0277 29.8507 34.7951 29.0832 34.7951 28.1364V22.992L32.4082 18.1048C32.1207 17.5162 31.5229 17.1429 30.8677 17.1429H28.0109M26.7047 30.1703H21.6689M16.2901 30.2222C16.2901 30.8569 16.5423 31.4656 16.9911 31.9144C17.4399 32.3632 18.0486 32.6154 18.6833 32.6154C19.318 32.6154 19.9267 32.3632 20.3755 31.9144C20.8243 31.4656 21.0764 30.8569 21.0764 30.2222C21.0764 29.5875 20.8243 28.9788 20.3755 28.53C19.9267 28.0812 19.318 27.8291 18.6833 27.8291C18.0486 27.8291 17.4399 28.0812 16.9911 28.53C16.5423 28.9788 16.2901 29.5875 16.2901 30.2222ZM27.1535 30.2222C27.1535 30.8569 27.4057 31.4656 27.8545 31.9144C28.3033 32.3632 28.912 32.6154 29.5467 32.6154C30.1814 32.6154 30.7901 32.3632 31.2389 31.9144C31.6877 31.4656 31.9398 30.8569 31.9398 30.2222C31.9398 29.5875 31.6877 28.9788 31.2389 28.53C30.7901 28.0812 30.1814 27.8291 29.5467 27.8291C28.912 27.8291 28.3033 28.0812 27.8545 28.53C27.4057 28.9788 27.1535 29.5875 27.1535 30.2222Z" stroke="#1E1E1E" stroke-width="1.71429" stroke-linecap="round" stroke-linejoin="round"/>
</svg>
