<svg width="487" height="429" viewBox="0 0 487 429" fill="none" xmlns="http://www.w3.org/2000/svg">
<path d="M-17.5395 24.7349C0.304525 14.8355 52.2354 -11.0446 98.3885 8.888C129.489 22.3195 146.65 50.5257 152.528 65.0184C158.038 78.6036 161.299 92.397 161.299 92.397C163.655 102.423 163.814 106.928 167.138 123.099C167.138 123.099 169.121 133.574 172.623 147.678C182.126 186.037 190.837 218.848 214.879 241.514C221.782 248.03 239.398 262.558 267.683 265.142C286.079 266.825 300.986 262.698 308.28 261.073C363.147 248.713 426.398 277.339 459.023 336.348C467.894 352.399 480.339 381.257 484.616 428.269" stroke="#BDDEB4" stroke-width="3" stroke-miterlimit="10" stroke-dasharray="10 10"/>
</svg>
