<svg width="342" height="237" viewBox="0 0 342 237" fill="none" xmlns="http://www.w3.org/2000/svg">
<g clip-path="url(#clip0_968_22207)">
<path d="M299.009 220.224C317.077 223.137 333.485 214.578 335.656 201.109C337.827 187.639 324.939 174.359 306.871 171.447C288.803 168.535 272.395 177.093 270.224 190.563C268.053 204.032 280.941 217.312 299.009 220.224Z" fill="#F9C5DB" stroke="#231F20" stroke-width="0.1" stroke-miterlimit="10"/>
<path d="M307.672 163.496C330.099 167.111 339.528 182.897 336.557 201.33C333.586 219.763 319.674 231.786 297.247 228.171C274.82 224.557 265.391 208.771 268.362 190.338C271.333 171.905 285.269 159.885 307.672 163.496ZM299.246 215.768C314.987 218.305 323.57 211.23 325.454 199.54C327.338 187.85 321.413 178.437 305.672 175.899C289.931 173.362 281.349 180.437 279.465 192.127C277.58 203.817 283.505 213.231 299.246 215.768Z" fill="#231F20"/>
<path d="M296.317 191.536C298.389 191.869 300.322 190.564 300.635 188.621C300.948 186.677 299.523 184.831 297.452 184.497C295.381 184.163 293.448 185.468 293.134 187.412C292.821 189.355 294.246 191.202 296.317 191.536Z" fill="white" stroke="#231F20" stroke-width="0.25" stroke-miterlimit="10"/>
<path d="M307.27 208.551C309.341 208.885 311.274 207.58 311.587 205.636C311.9 203.693 310.475 201.847 308.404 201.513C306.333 201.179 304.4 202.484 304.087 204.427C303.773 206.371 305.198 208.217 307.27 208.551Z" fill="white" stroke="#231F20" stroke-width="0.25" stroke-miterlimit="10"/>
<path d="M294.247 204.381C296.318 204.715 298.251 203.41 298.564 201.466C298.877 199.523 297.452 197.677 295.381 197.343C293.31 197.009 291.377 198.314 291.064 200.258C290.75 202.201 292.175 204.047 294.247 204.381Z" fill="white" stroke="#231F20" stroke-width="0.25" stroke-miterlimit="10"/>
<path d="M309.332 195.754C311.403 196.088 313.336 194.783 313.65 192.84C313.963 190.896 312.538 189.05 310.467 188.716C308.395 188.382 306.462 189.687 306.149 191.631C305.836 193.574 307.261 195.42 309.332 195.754Z" fill="white" stroke="#231F20" stroke-width="0.25" stroke-miterlimit="10"/>
</g>
<g clip-path="url(#clip1_968_22207)">
<path d="M35.8591 62.2244C53.9275 65.1367 70.3348 56.5784 72.5058 43.1089C74.6769 29.6394 61.7895 16.3593 43.7211 13.447C25.6527 10.5347 9.2454 19.093 7.07436 32.5625C4.90332 46.0321 17.7907 59.3121 35.8591 62.2244Z" fill="#F9C5DB" stroke="#231F20" stroke-width="0.1" stroke-miterlimit="10"/>
<path d="M44.5217 5.49587C66.949 9.11074 76.3779 24.8965 73.4069 43.3295C70.4358 61.7626 56.5245 73.7863 34.0972 70.1715C11.6699 66.5566 2.24099 50.7708 5.21206 32.3378C8.18313 13.9048 22.1191 1.88498 44.5217 5.49587ZM36.0964 57.7679C51.8375 60.3051 60.42 53.2298 62.3042 41.54C64.1884 29.8502 58.2636 20.4366 42.5225 17.8994C26.7814 15.3622 18.1989 22.4375 16.3147 34.1273C14.4305 45.8172 20.3554 55.2308 36.0964 57.7679Z" fill="#231F20"/>
<path d="M33.1675 33.5356C35.2387 33.8694 37.1717 32.5644 37.485 30.6208C37.7982 28.6771 36.3732 26.8309 34.302 26.497C32.2308 26.1632 30.2978 27.4682 29.9845 29.4118C29.6712 31.3555 31.0963 33.2017 33.1675 33.5356Z" fill="white" stroke="#231F20" stroke-width="0.25" stroke-miterlimit="10"/>
<path d="M44.1197 50.5512C46.1908 50.885 48.1238 49.58 48.4371 47.6364C48.7504 45.6928 47.3253 43.8465 45.2541 43.5127C43.1829 43.1788 41.2499 44.4838 40.9367 46.4275C40.6234 48.3711 42.0485 50.2173 44.1197 50.5512Z" fill="white" stroke="#231F20" stroke-width="0.25" stroke-miterlimit="10"/>
<path d="M31.0967 46.3813C33.1679 46.7151 35.1009 45.4101 35.4142 43.4665C35.7274 41.5228 34.3024 39.6766 32.2312 39.3427C30.16 39.0089 28.227 40.3139 27.9137 42.2575C27.6004 44.2012 29.0255 46.0474 31.0967 46.3813Z" fill="white" stroke="#231F20" stroke-width="0.25" stroke-miterlimit="10"/>
<path d="M46.1822 37.7543C48.2533 38.0881 50.1863 36.7831 50.4996 34.8395C50.8129 32.8959 49.3878 31.0496 47.3166 30.7158C45.2454 30.382 43.3124 31.687 42.9992 33.6306C42.6859 35.5742 44.111 37.4205 46.1822 37.7543Z" fill="white" stroke="#231F20" stroke-width="0.25" stroke-miterlimit="10"/>
</g>
<g clip-path="url(#clip2_968_22207)">
<path d="M151.413 202.623C197.473 210.047 239.299 188.23 244.834 153.893C250.368 119.556 217.515 85.7025 171.455 78.2784C125.395 70.8543 83.5691 92.6713 78.0347 127.008C72.5002 161.345 105.353 195.199 151.413 202.623Z" fill="#F9C5DB" stroke="#231F20" stroke-width="0.1" stroke-miterlimit="10"/>
<path d="M173.496 58.0102C230.668 67.2252 254.704 107.467 247.13 154.456C239.556 201.446 204.094 232.097 146.922 222.882C89.7495 213.667 65.7132 173.426 73.287 126.436C80.8609 79.4462 116.387 48.8052 173.496 58.0102ZM152.018 191.263C192.145 197.731 214.024 179.694 218.827 149.894C223.631 120.095 208.527 96.0973 168.399 89.6295C128.272 83.1617 106.393 101.198 101.59 130.998C96.7868 160.798 111.891 184.795 152.018 191.263Z" fill="#231F20"/>
<path d="M144.551 129.491C149.831 130.342 154.759 127.016 155.558 122.061C156.356 117.106 152.723 112.4 147.443 111.549C142.164 110.698 137.236 114.024 136.437 118.979C135.639 123.934 139.271 128.64 144.551 129.491Z" fill="white" stroke="#231F20" stroke-width="0.25" stroke-miterlimit="10"/>
<path d="M172.47 172.868C177.75 173.719 182.678 170.393 183.476 165.438C184.275 160.483 180.642 155.777 175.362 154.926C170.082 154.075 165.155 157.401 164.356 162.356C163.558 167.311 167.19 172.017 172.47 172.868Z" fill="white" stroke="#231F20" stroke-width="0.25" stroke-miterlimit="10"/>
<path d="M139.273 162.239C144.553 163.09 149.481 159.764 150.279 154.809C151.078 149.854 147.445 145.148 142.165 144.297C136.885 143.446 131.958 146.772 131.159 151.727C130.36 156.682 133.993 161.388 139.273 162.239Z" fill="white" stroke="#231F20" stroke-width="0.25" stroke-miterlimit="10"/>
<path d="M177.729 140.245C183.009 141.096 187.936 137.77 188.735 132.815C189.533 127.86 185.901 123.154 180.621 122.303C175.341 121.452 170.413 124.778 169.615 129.733C168.816 134.688 172.449 139.394 177.729 140.245Z" fill="white" stroke="#231F20" stroke-width="0.25" stroke-miterlimit="10"/>
</g>
<defs>
<clipPath id="clip0_968_22207">
<rect width="69.0999" height="65.5103" fill="white" transform="translate(273.574 158) rotate(9.15627)"/>
</clipPath>
<clipPath id="clip1_968_22207">
<rect width="69.0999" height="65.5103" fill="white" transform="translate(10.4243) rotate(9.15627)"/>
</clipPath>
<clipPath id="clip2_968_22207">
<rect width="176.151" height="167" fill="white" transform="translate(86.5742 44) rotate(9.15627)"/>
</clipPath>
</defs>
</svg>
