<svg width="513" height="602" viewBox="0 0 513 602" fill="none" xmlns="http://www.w3.org/2000/svg">
<path d="M382.066 28.9101C376.18 24.0094 370.203 19.3968 364.173 15.068" stroke="#E4A2BE" stroke-width="3" stroke-miterlimit="10" stroke-dasharray="9 9"/>
<path d="M398.664 112.335C334.709 79.565 269.306 77.9481 226.94 109.821C170.717 152.128 169.316 242.697 197.743 306.573C204.251 321.202 218.807 353.921 246.077 366.733C276.458 380.998 313.769 366.403 317.259 334.684C320.909 301.507 285.584 267.036 277.457 259.113C248.801 231.169 203.921 209.267 169.038 216.208C96.3907 230.637 86.2457 366.164 81.9143 424.259C78.1297 474.952 83.2477 501.266 63.6196 529.187C46.6749 553.267 21.3658 564.303 0.236097 569.404" stroke="#E4A2BE" stroke-width="3" stroke-miterlimit="10" stroke-dasharray="9 9"/>
</svg>
