<svg width="72" height="73" viewBox="0 0 72 73" fill="none" xmlns="http://www.w3.org/2000/svg">
<rect width="72" height="73" rx="15" fill="black"/>
<path d="M25.4615 57H19.1538C18.3174 57 17.5152 56.6676 16.9237 56.0762C16.3323 55.4849 16 54.6826 16 53.8462V28.6154M16 28.6154H57M16 28.6154L22.97 17.5769C23.2397 17.1093 23.6249 16.7188 24.0888 16.4427C24.5527 16.1666 25.0796 16.0142 25.6192 16H47.3808C47.9204 16.0142 48.4474 16.1666 48.9113 16.4427C49.3749 16.7188 49.7603 17.1093 50.03 17.5769L57 28.6154M57 28.6154V53.8462C57 54.6826 56.6676 55.4849 56.0762 56.0762C55.4849 56.6676 54.6826 57 53.8462 57H47.5385M28.6153 45.9615L36.4999 38.0769M36.4999 38.0769L44.3845 45.9615M36.4999 38.0769L36.5001 57M36.5001 16V28.6154" stroke="#BDDEB4" stroke-width="1.42857" stroke-linecap="round" stroke-linejoin="round"/>
</svg>
