<svg width="185" height="36" viewBox="0 0 185 36" fill="none" xmlns="http://www.w3.org/2000/svg">
<g clip-path="url(#clip0_178_10786)">
<g clip-path="url(#clip1_178_10786)">
<g clip-path="url(#clip2_178_10786)">
<mask id="mask0_178_10786" style="mask-type:luminance" maskUnits="userSpaceOnUse" x="0" y="0" width="185" height="36">
<path d="M184.158 0.0800781H0.0322266V35.2501H184.158V0.0800781Z" fill="white"/>
</mask>
<g mask="url(#mask0_178_10786)">
<path d="M118.421 27.7931H113.423C113.423 27.0017 113.423 26.2575 113.423 25.5133C113.38 23.4695 113.383 21.4183 113.256 19.3818C113.194 18.4052 112.497 18.0132 111.521 18.1766C111.314 18.2129 111.103 18.2455 110.9 18.2928C109.012 18.7501 108.838 18.9752 108.838 20.9029C108.838 22.8305 108.838 24.7001 108.838 26.5988C108.838 26.9218 108.809 27.2449 108.787 27.6624C107.211 27.6624 105.705 27.6914 104.205 27.6224C104.02 27.6224 103.712 27.0997 103.708 26.8165C103.676 23.5893 103.686 20.3656 103.686 17.1419V14.8984H108.769C108.813 15.4684 108.849 15.904 108.889 16.4195C109.763 16.0274 110.562 15.6209 111.398 15.305C112.813 14.7677 114.255 14.3249 115.801 14.7097C117.348 15.0945 118.302 16.1835 118.385 17.6139C118.585 20.9174 118.527 24.2355 118.57 27.5498C118.549 27.6551 118.466 27.7169 118.421 27.7931Z" fill="#191C20"/>
<path d="M144.168 27.6188H139.085V14.8839H144.12V16.5029C144.49 16.2912 144.872 16.1056 145.268 15.9476C146.778 15.4755 148.274 14.8185 149.824 14.6297C150.301 14.552 150.789 14.578 151.255 14.7056C151.721 14.8333 152.155 15.0598 152.525 15.3697C152.896 15.6796 153.196 16.0658 153.404 16.5018C153.613 16.9379 153.725 17.4137 153.733 17.897C153.882 21.1642 153.769 24.4315 153.769 27.8511C152.169 27.8511 150.611 27.8511 149.05 27.8257C148.913 27.8257 148.687 27.4627 148.687 27.2667C148.666 25.2192 148.687 23.1681 148.687 21.1206C148.703 20.5509 148.679 19.9807 148.615 19.4144C148.485 18.4778 147.812 18.0349 146.862 18.1874L146.328 18.2854C144.418 18.6919 144.19 18.9715 144.19 20.8992L144.168 27.6188Z" fill="#191C20"/>
<path d="M137.565 24.5772C137.976 26.2434 137.863 26.6464 136.32 27.1401C134.946 27.5593 133.534 27.8438 132.105 27.9896C131.633 28.044 131.016 27.681 130.631 27.3216C130.501 27.1681 130.326 27.0582 130.132 27.007C129.937 26.9557 129.731 26.9654 129.542 27.0348C127.923 27.3542 126.274 27.7609 124.66 27.8225C123.805 27.8609 122.966 27.5888 122.297 27.0563C121.628 26.5238 121.174 25.7672 121.02 24.9261C120.864 24.085 121.02 23.2165 121.456 22.481C121.893 21.7455 122.581 21.1928 123.393 20.9251C125.11 20.3878 126.896 20.0684 128.653 19.6617C129.081 19.5602 129.713 19.7889 129.771 19.0555C129.829 18.3222 129.821 17.4691 128.994 17.2113C128.18 16.9227 127.309 16.8319 126.452 16.9463C125.519 17.1315 124.674 17.7377 123.77 18.1117C123.434 18.2824 123.052 18.3409 122.681 18.2786C122.536 18.1855 122.413 18.0619 122.321 17.9165C122.229 17.771 122.17 17.6072 122.147 17.4364C121.885 15.7012 121.567 15.8137 123.628 15.1602C126.137 14.3509 128.801 14.1468 131.404 14.5649C133.688 14.9279 134.715 16.1187 134.737 18.4347C134.737 20.003 134.657 21.5676 134.639 23.1323C134.639 24.8422 135.031 25.1544 136.716 24.7623C136.988 24.6824 137.282 24.6352 137.565 24.5772ZM129.941 21.6184C128.951 21.727 127.971 21.9017 127.005 22.1412C126.804 22.2505 126.633 22.4067 126.507 22.5963C126.381 22.786 126.302 23.0036 126.279 23.2303C126.261 23.8089 126.434 24.3774 126.769 24.8494C127.132 25.3032 129.451 25.0745 129.883 24.6388C130.026 24.4547 130.1 24.2258 130.09 23.9926C130.064 23.2629 129.999 22.5442 129.938 21.6184H129.941Z" fill="#191C20"/>
<path d="M94.4296 14.8044V17.3457C93.5983 17.3457 92.7924 17.3928 91.9937 17.3457C91.2677 17.2911 91.0498 17.5598 91.0571 18.2641C91.0862 21.034 91.0571 23.8075 91.0571 26.5774C91.0571 26.9041 91.0281 27.2272 91.0099 27.6664C89.4163 27.6664 87.8842 27.6955 86.3559 27.6265C86.1926 27.6265 85.9275 27.0602 85.9239 26.7553C85.8876 23.9853 85.9022 21.2119 85.9022 18.4419V17.3856H83.8692C83.8225 16.8643 83.8335 16.3397 83.9018 15.8209C83.9667 15.6702 84.0663 15.5371 84.1925 15.4324C84.3187 15.3276 84.4679 15.2543 84.6279 15.2183C85.6298 15.0694 86.0038 14.5867 86.0365 13.5521C86.1526 9.83099 88.7991 8.17922 91.805 7.03932C94.0412 6.18984 96.3936 5.95025 98.6371 7.20632C99.3196 7.59113 99.8423 8.0812 99.7589 8.98877C99.668 9.97619 98.0635 11.2722 97.0978 11.0363C96.8572 10.9375 96.6496 10.7726 96.4989 10.5606C95.4098 9.3046 92.7778 9.09042 91.5472 10.1977C91.3214 10.4693 91.1412 10.7758 91.0135 11.1053C90.9768 11.1887 90.9582 11.279 90.9591 11.3703C90.9591 12.3612 90.6251 13.5048 91.0135 14.3107C91.5036 15.3236 92.7924 14.5576 93.7072 14.75C93.9465 14.7849 94.1878 14.8031 94.4296 14.8044Z" fill="#191C20"/>
<path d="M175.875 22.0243C176.023 23.8939 177.429 25.0773 179.182 24.8123C180.309 24.6305 181.416 24.3436 182.489 23.9556C183.143 23.7305 183.509 23.7486 183.716 24.4493C183.864 24.7419 183.978 25.0499 184.058 25.3678C184.058 25.5087 184.024 25.6476 183.961 25.7736C183.898 25.8997 183.807 26.0092 183.694 26.0939C181.331 27.2228 178.859 27.9308 176.201 27.8581C172.48 27.7601 170.328 25.5783 170.143 21.8646C169.925 17.4792 173.011 14.5532 177.312 14.4008C178.333 14.3479 179.356 14.4557 180.344 14.7202C181.651 15.1323 182.782 15.9745 183.552 17.11C184.32 18.2455 184.683 19.6076 184.58 20.9752C184.544 21.5124 184.217 21.5016 183.854 21.5197C181.473 21.6407 179.091 21.7677 176.71 21.9009C176.445 21.9227 176.187 21.9807 175.875 22.0243ZM179.48 19.5449C179.48 18.4377 179.389 17.4574 178.391 16.8839C178.057 16.6699 177.66 16.5745 177.266 16.6126C176.87 16.6508 176.499 16.8205 176.213 17.0944C175.457 17.8204 175.337 18.7934 175.443 19.8824L178.95 19.632C179.084 19.621 179.229 19.5848 179.48 19.5449Z" fill="#191C20"/>
<path d="M168.324 23.4369C168.93 24.428 168.752 25.7784 167.942 26.2866C166.796 27.0517 165.499 27.5608 164.138 27.7795C162.777 27.998 161.386 27.9211 160.058 27.5536C156.587 26.6061 154.997 23.0848 156.398 19.4399C157.607 16.2998 160.101 14.7969 163.332 14.4121C164.929 14.2101 166.551 14.4395 168.03 15.0764C168.824 15.4176 169.118 16.122 168.694 16.8916C168.597 17.0449 168.49 17.1916 168.374 17.3308C167.311 18.7829 167.362 18.6413 165.717 17.9733C164.824 17.6103 163.724 17.6285 162.733 17.6829C161.927 17.7302 161.506 18.438 161.429 19.2112C161.345 19.8993 161.358 20.5958 161.465 21.2805C162.014 24.2755 164.37 25.3174 167.391 23.9379C167.692 23.789 167.979 23.6184 168.324 23.4369Z" fill="#191C20"/>
<path d="M31.9672 35.4929H29.7891V14.5608H31.8946L32.0144 15.4829C32.8022 15.1707 33.5573 14.8367 34.3378 14.5681C37.242 13.5552 40.2842 14.3974 41.7109 16.5974C43.3735 19.1385 42.8907 23.3243 40.6726 25.4589C38.4545 27.5934 35.779 28.3268 32.755 27.6551C32.5807 27.6152 32.392 27.5717 32.225 27.5426C32.1384 27.5419 32.052 27.5504 31.9672 27.568V35.4929ZM31.9672 21.3022V23.2988C31.9672 25.8038 31.9672 25.8038 34.4467 26.1812C36.5958 26.508 38.6179 25.6549 39.6307 24.0032C40.698 22.2497 40.6109 19.5415 39.4346 17.9225C38.0044 15.9512 35.0783 15.501 32.5372 16.8333C32.3442 16.9044 32.1805 17.0382 32.0726 17.2133C31.9646 17.3884 31.9186 17.5947 31.9418 17.799C31.989 18.9425 31.96 20.1296 31.96 21.3022H31.9672Z" fill="#191C20"/>
<path d="M71.5953 19.9875C71.5554 19.1526 71.6534 18.2487 71.4138 17.4464C71.3059 17.16 71.1366 16.9007 70.9177 16.6869C70.6988 16.473 70.4357 16.3097 70.1468 16.2084C68.3898 15.7764 66.6727 15.8745 65.2787 17.2975C65.1733 17.3879 65.0497 17.4544 64.9162 17.4925C64.7828 17.5308 64.6426 17.5398 64.5055 17.5189C64.3639 17.4899 64.2912 17.1051 64.2078 16.8728C63.8774 15.9725 64.3239 15.486 65.0935 15.0976C66.9112 14.1687 68.9791 13.848 70.9927 14.1827C72.717 14.4514 73.6646 15.515 73.6973 17.2793C73.7444 19.7443 73.6973 22.2129 73.6973 24.6815C73.6973 26.1771 74.0603 26.4203 75.5123 25.923C75.7956 25.8287 76.0678 25.7089 76.3473 25.5999C76.7321 26.5983 76.645 26.9249 75.7665 27.3171C75.2165 27.5628 74.6422 27.7503 74.053 27.8761C72.786 28.1447 72.4231 27.9633 71.824 27.0048C70.2158 27.3279 68.6657 27.7308 67.1047 27.927C65.0972 28.1665 63.7431 26.9758 63.5108 24.9901C63.2385 22.6304 63.8266 21.7228 66.1354 21.1419C67.8525 20.71 69.635 20.3942 71.5953 19.9875ZM71.6353 21.102C70.0597 21.4832 68.5932 21.7918 67.1519 22.1911C65.8595 22.5541 65.5255 23.1712 65.6998 24.4855C65.7166 24.7363 65.7845 24.9812 65.8994 25.2048C66.0143 25.4284 66.1737 25.6263 66.3678 25.7861C66.562 25.9459 66.7868 26.0643 67.0283 26.134C67.2699 26.2038 67.5233 26.2234 67.7727 26.1916C69.0723 26.09 70.3538 25.7778 71.6316 25.56L71.6353 21.102Z" fill="#191C20"/>
<path d="M27.0014 25.7456C27.3173 26.6459 27.0014 27.1542 26.1955 27.401C25.5966 27.5861 24.9903 27.7641 24.3804 27.9092C23.4801 28.1125 22.7577 27.8911 22.46 26.9944C20.8699 27.3175 19.3235 27.6805 17.7588 27.9346C16.4628 28.1415 15.3265 27.7241 14.6331 26.5732C14.2394 25.9791 14.012 25.2904 13.9743 24.5786C13.9367 23.8668 14.0902 23.1579 14.4189 22.5256C14.778 21.9748 15.3272 21.5755 15.9618 21.4038C17.9621 20.852 20.0024 20.4418 22.1006 19.9517C22.1006 19.2256 22.2603 18.3109 22.0425 17.5122C21.9359 17.2116 21.7646 16.9381 21.5406 16.7111C21.3167 16.484 21.0456 16.3089 20.7465 16.198C18.9895 15.7515 17.2687 15.8822 15.8747 17.2871C15.7853 17.375 15.6771 17.4417 15.5583 17.4819C15.4395 17.5221 15.3131 17.535 15.1886 17.5194C15.0179 17.4613 14.9054 17.131 14.8255 16.9023C14.6114 16.1508 14.909 15.6789 15.6097 15.3195C17.4759 14.3515 19.6046 14.0116 21.6795 14.3502C23.3349 14.6044 24.315 15.6135 24.3586 17.2725C24.4167 19.6794 24.3187 22.0899 24.2969 24.4968C24.2751 26.4535 24.62 26.6749 26.4424 25.9489L27.0014 25.7456ZM22.1841 21.1207C20.5251 21.5309 18.9714 21.8467 17.4647 22.3077C16.4047 22.6199 16.1071 23.2044 16.2087 24.3007C16.3103 25.3971 16.844 26.1559 17.8314 26.1159C19.2014 26.0212 20.5627 25.827 21.9045 25.535C22.0243 25.5133 22.1768 25.2264 22.1804 25.0631C22.195 23.807 22.1841 22.5473 22.1841 21.1207Z" fill="#191C20"/>
<path d="M100.808 27.4589H95.7258C95.7039 27.1721 95.6604 26.8853 95.6604 26.5986C95.6604 22.9683 95.6822 19.338 95.6387 15.6823C95.6387 14.8728 95.8927 14.6332 96.6697 14.6695C97.8131 14.7239 98.964 14.6513 100.108 14.7131C100.351 14.7131 100.783 15.076 100.783 15.2612C100.819 19.3053 100.808 23.2986 100.808 27.4589Z" fill="#191C20"/>
<path d="M11.5036 24.7694C11.7214 25.5354 11.6778 26.0618 10.9481 26.4938C9.43927 27.4587 7.68208 27.9633 5.89118 27.9459C2.26092 27.8297 -0.160448 24.7405 0.275183 20.8815C0.790679 16.3691 6.10901 13.1926 10.3491 14.8698C10.5705 14.9569 10.7811 15.0767 10.9953 15.182C11.5036 15.4324 11.8811 15.7737 11.5871 16.3836C11.3402 16.8991 10.3419 17.1314 9.86995 16.8083C8.28716 15.7193 6.63176 15.7193 4.99452 16.5904C3.35728 17.4617 2.81636 18.9429 2.76553 20.6636C2.74491 21.0841 2.76071 21.5056 2.81273 21.9234C3.30644 25.4265 5.99646 26.904 9.59768 25.6335C10.2366 25.4156 10.8356 25.078 11.5036 24.7694Z" fill="#191C20"/>
<path d="M61.3798 25.5456C61.7429 26.2281 61.5614 26.7509 60.8099 26.9977C59.6228 27.3933 58.4393 27.9089 57.2123 28.0686C55.5969 28.2791 54.3843 27.2954 54.1048 25.6908C53.9551 24.6182 53.8908 23.5354 53.9124 22.4526C53.887 20.4124 53.9124 18.3685 53.9124 16.2812L52.3369 16.1759C52.3369 15.33 55.1358 12.3351 56.0942 12.1826V14.6511H61.3508V16.2013H56.2938C56.2938 19.1055 56.2249 21.8681 56.3302 24.6235C56.3737 25.7634 57.2595 26.3914 58.4248 26.2535C59.4239 26.0802 60.4108 25.8438 61.3798 25.5456Z" fill="#191C20"/>
<path d="M79.2227 6.40723H81.3791V27.5644H79.2227V6.40723Z" fill="#191C20"/>
<path d="M22.4018 4.42166V7.5945C23.0262 7.5945 23.6869 7.75425 24.1915 7.54369C24.5981 7.37307 24.8195 6.75593 25.2805 6.11337V9.72184C24.8305 9.09018 24.6126 8.47304 24.1915 8.26974C23.716 8.05555 23.0698 8.22255 22.3764 8.22255C22.3764 9.16279 22.3474 10.0849 22.3981 10.9997C22.4305 11.1246 22.4912 11.2403 22.5755 11.3379C22.66 11.4355 22.7657 11.5124 22.8846 11.5623C24.1443 12.038 25.3387 11.5406 25.9885 10.3208C26.0465 10.2192 26.1155 10.1212 26.1809 10.0231C26.7726 10.3862 26.7726 10.3862 26.2389 12.43H19.5084L19.4032 12.2049C19.6142 12.0532 19.8451 11.931 20.0893 11.8419C20.1939 11.8309 20.2953 11.7987 20.387 11.7472C20.4788 11.6957 20.5591 11.6261 20.6229 11.5424C20.6868 11.4588 20.7329 11.363 20.7586 11.261C20.7841 11.1589 20.7887 11.0527 20.7717 10.9488C20.7717 9.05025 20.7717 7.15162 20.7717 5.253C20.7915 5.1419 20.7865 5.02784 20.7573 4.91887C20.728 4.80992 20.675 4.70873 20.6023 4.62249C20.5296 4.53625 20.4388 4.46704 20.3362 4.41979C20.2338 4.37255 20.1222 4.34839 20.0095 4.34906C19.782 4.28672 19.5645 4.19262 19.3633 4.06953L19.4213 3.84082H26.1773L26.3697 6.19687C25.7379 5.48897 25.3495 4.71572 24.7433 4.46523C24.0826 4.21111 23.2223 4.42166 22.4018 4.42166Z" fill="#191C20"/>
<path d="M38.96 12.3863C38.2996 12.4884 37.6306 12.5225 36.9633 12.4879C36.7273 12.4552 36.426 11.8926 36.4006 11.5514C36.3244 10.5348 36.4006 9.50388 36.3425 8.48741C36.3171 8.12438 36.0085 7.80128 35.8307 7.46004C35.4676 7.67422 34.8976 7.82307 34.7851 8.11711C34.5048 8.93365 34.3148 9.77852 34.2189 10.6365C34.1709 11.2404 34.1649 11.8469 34.2006 12.4516H32.5307V5.51059C32.5307 4.13836 32.5307 4.13836 31.6885 3.18359H34.0917V7.68875C34.4075 7.32572 34.571 7.08612 34.7561 6.89008C35.0117 6.58773 35.3517 6.36853 35.7326 6.26052C36.1136 6.15252 36.518 6.16064 36.8944 6.28384C37.7039 6.53795 37.918 7.24585 37.9471 8.0082C37.9688 8.67254 37.9471 9.33325 37.9471 9.99395C37.9471 10.8507 37.624 11.878 39.1596 12.0377L38.96 12.3863Z" fill="#191C20"/>
<path d="M48.6664 27.5972H46.4883V14.6299H48.6664V27.5972Z" fill="#191C20"/>
<path d="M0.0322266 3.86621H4.79512C4.49018 4.12032 4.35948 4.32363 4.2179 4.33088C3.37931 4.38171 3.30671 4.88995 3.3176 5.57243C3.35391 7.28591 3.35391 9.00061 3.3176 10.7165C3.3176 11.5369 3.65884 11.8055 4.44661 11.8601C5.84062 11.9871 6.76997 11.468 7.18745 9.99771L7.55048 10.2119C7.48541 10.9095 7.35166 11.599 7.15115 12.2703C7.07855 12.4663 6.42511 12.488 6.01851 12.4917C4.35949 12.5171 2.70046 12.4917 1.04506 12.4917C0.717838 12.4709 0.391896 12.4333 0.0685202 12.3791C0.311747 12.1251 0.380728 11.9835 0.460594 11.9798C1.57508 11.8855 1.65493 11.1593 1.62226 10.2591C1.57143 8.75617 1.58595 7.25324 1.62226 5.74668C1.62226 4.99159 1.62226 4.3454 0.609425 4.31636C0.471475 4.31999 0.351689 4.13122 0.0322266 3.86621Z" fill="#191C20"/>
<path d="M44.877 9.26456C44.8552 11.3774 43.6862 12.5717 41.6533 12.5609C39.9181 12.5609 38.7963 11.3447 38.8217 9.51868C38.8472 7.34053 40.0234 6.1498 42.089 6.1752C43.8242 6.20062 44.8952 7.38772 44.877 9.26456ZM43.3813 9.49326C43.247 8.79626 43.2361 8.16095 42.9893 7.6382C42.8187 7.27518 42.325 6.81051 41.9801 6.81414C41.7419 6.84208 41.5134 6.92479 41.3124 7.0558C41.1115 7.1868 40.9437 7.36253 40.822 7.56924C40.5527 8.15884 40.4167 8.80055 40.4235 9.44871C40.4304 10.0969 40.5801 10.7356 40.8619 11.3193C40.9496 11.5197 41.0939 11.6902 41.277 11.81C41.4601 11.9298 41.6741 11.9935 41.8929 11.9935C42.1118 11.9935 42.3258 11.9298 42.5089 11.81C42.692 11.6902 42.8362 11.5197 42.9239 11.3193C43.1414 10.7326 43.2947 10.1239 43.3813 9.50416V9.49326Z" fill="#191C20"/>
<path d="M14.3611 10.4263C14.4193 11.7512 14.7533 12.2014 15.6608 12.0453C15.9875 11.9873 16.4667 11.6824 16.5176 11.4391C16.5246 11.244 16.4908 11.0495 16.4183 10.8682C16.3458 10.6869 16.2361 10.5228 16.0965 10.3863C15.8423 10.1286 15.3921 10.0741 15.04 9.91073C14.2014 9.52593 13.5153 8.99591 13.548 7.96854C13.5564 7.58689 13.6899 7.21855 13.9279 6.92014C14.1661 6.62173 14.4955 6.40975 14.8658 6.31678C15.7951 5.99733 16.7245 6.01547 17.5014 6.67981C17.6146 6.78969 17.6994 6.92535 17.7487 7.07518C17.7981 7.22502 17.8103 7.38457 17.7845 7.54018C17.6321 7.85238 17.229 8.04479 16.7389 8.44775C16.7753 7.87779 16.8878 7.57286 16.7826 7.37683C16.6374 7.10093 16.3179 6.70522 16.0965 6.71974C15.6814 6.76711 15.2959 6.95852 15.0073 7.26065C14.8948 7.38045 15.0727 7.9867 15.2906 8.15006C15.7498 8.42677 16.2364 8.65548 16.7427 8.83255C17.8317 9.32627 18.3146 10.0523 18.1948 10.9744C18.0749 11.8965 17.338 12.4991 16.1545 12.5246C15.3839 12.5393 14.6167 12.4163 13.8892 12.1615C13.6461 12.0744 13.4537 11.3991 13.5263 11.0398C13.5225 10.8002 14.0417 10.6295 14.3611 10.4263Z" fill="#191C20"/>
<path d="M9.56547 9.71757C9.82685 11.6198 10.3133 11.8268 12.938 11.1697C12.8436 11.9429 11.8852 12.6726 10.8833 12.7307C10.2623 12.7876 9.64062 12.6304 9.1215 12.2849C8.60238 11.9395 8.21715 11.4268 8.02988 10.8321C7.53616 9.32912 8.02989 7.64469 9.32951 6.9622C10.0038 6.64139 10.7333 6.45284 11.4786 6.40677C11.7999 6.36147 12.1263 6.44298 12.3885 6.63406C12.6507 6.82514 12.8282 7.11079 12.8835 7.4305C12.9849 7.75454 12.9554 8.10537 12.8014 8.40795C12.6474 8.71054 12.3811 8.94084 12.0594 9.0496C11.2409 9.31741 10.4083 9.54039 9.56547 9.71757ZM9.28595 8.74829L9.52917 9.03507C10.0519 8.7991 10.6799 8.67205 11.0611 8.30902C11.3261 8.04401 11.4714 7.27077 11.2826 7.02029C10.8833 6.50116 10.2407 6.72987 9.91034 7.21632C9.64371 7.70202 9.43187 8.21582 9.27868 8.74829H9.28595Z" fill="#191C20"/>
<path d="M48.725 8.25531C48.5218 7.61275 48.5145 7.07911 48.2495 6.86129C48.147 6.76865 48.025 6.70013 47.8926 6.66075C47.7601 6.62138 47.6206 6.61213 47.4842 6.63372C47.3477 6.65531 47.2178 6.70717 47.104 6.78549C46.9902 6.86382 46.8954 6.96662 46.8265 7.08636C46.4271 7.66357 46.7575 8.05565 47.2729 8.31339C47.7303 8.53847 48.2277 8.67642 48.6887 8.91239C49.6507 9.37706 50.0574 10.0813 49.9303 10.9925C49.8142 11.8311 49.226 12.4265 48.1623 12.4991C47.3603 12.5424 46.5568 12.4454 45.7881 12.2123C45.5232 12.1324 45.2691 11.4862 45.3162 11.1232C45.3489 10.8582 45.8753 10.6586 46.3364 10.3137C46.3364 11.8094 46.6305 12.2086 47.5198 12.0525C47.8501 11.9945 48.3366 11.6896 48.3874 11.4499C48.3929 11.254 48.3572 11.0592 48.2828 10.8779C48.2084 10.6965 48.0968 10.5328 47.9554 10.3972C47.6977 10.143 47.2548 10.0777 46.8954 9.92523C45.8971 9.49686 45.3562 8.81074 45.3961 7.9794C45.4094 7.59764 45.5456 7.23036 45.7843 6.93214C46.023 6.63391 46.3516 6.42064 46.7212 6.32401C47.6505 6.00817 48.5908 6.0227 49.364 6.68704C49.4805 6.81067 49.5644 6.96135 49.6081 7.12549C49.6518 7.28963 49.654 7.46207 49.6144 7.62727C49.4619 7.91769 49.0227 8.05202 48.725 8.25531Z" fill="#191C20"/>
<path d="M31.9964 10.9194C31.8477 11.8814 30.8131 12.6402 29.8002 12.6801C29.2386 12.6998 28.6843 12.549 28.21 12.2477C27.7357 11.9464 27.3637 11.5087 27.1429 10.992C26.864 10.3706 26.7768 9.68005 26.8926 9.00877C27.0083 8.33751 27.3217 7.71604 27.7926 7.22387C28.7038 6.37439 30.1886 6.04403 31.1325 6.6285C31.5063 6.93392 31.7723 7.35131 31.8912 7.81922C31.942 7.97169 31.5681 8.38554 31.3103 8.49081C30.9219 8.65055 30.4935 8.60336 30.6242 7.96806C30.7259 7.45983 30.7441 6.94796 30.1378 6.78097C29.8711 6.70518 29.5855 6.73397 29.3393 6.86146C29.0931 6.98895 28.9048 7.20555 28.8127 7.4671C28.5634 7.96804 28.4307 8.51889 28.4244 9.0784C28.4181 9.63791 28.5385 10.1916 28.7764 10.6981C29.1975 11.6092 30.1414 11.8452 31.1833 11.3732C31.4229 11.2643 31.6552 11.1154 31.9964 10.9194Z" fill="#191C20"/>
</g>
</g>
</g>
</g>
<defs>
<clipPath id="clip0_178_10786">
<rect width="184.19" height="35.17" fill="white" transform="translate(0 0.0800781)"/>
</clipPath>
<clipPath id="clip1_178_10786">
<rect width="184.19" height="35.17" fill="white" transform="translate(0 0.0800781)"/>
</clipPath>
<clipPath id="clip2_178_10786">
<rect width="184.125" height="35.17" fill="white" transform="translate(0.0322266 0.0800781)"/>
</clipPath>
</defs>
</svg>
