<svg width="185" height="47" viewBox="0 0 185 47" fill="none" xmlns="http://www.w3.org/2000/svg">
<g clip-path="url(#clip0_178_13006)">
<g clip-path="url(#clip1_178_13006)">
<g clip-path="url(#clip2_178_13006)">
<mask id="mask0_178_13006" style="mask-type:luminance" maskUnits="userSpaceOnUse" x="0" y="0" width="185" height="47">
<path d="M184.983 0.469727H0.827148V46.8497H184.983V0.469727Z" fill="white"/>
</mask>
<g mask="url(#mask0_178_13006)">
<path d="M94.5994 45.2476C94.5994 33.5216 94.5994 22.6926 94.5994 11.8801C94.5994 8.55829 95.1309 4.78805 90.4805 3.09392L104.116 0.469727V15.1853C105.777 14.77 107.139 14.4047 108.534 14.0725C111.212 13.3178 114.069 13.5163 116.617 14.6342C119.164 15.7519 121.245 17.7197 122.502 20.2011C123.992 22.7718 124.796 25.6819 124.837 28.6525C124.878 31.6232 124.156 34.5545 122.738 37.1656C121.321 39.7766 119.257 41.9797 116.744 43.5636C114.23 45.1476 111.352 46.0591 108.385 46.2109C103.774 46.1857 99.1692 45.8639 94.5994 45.2476ZM103.967 43.5866C108.136 44.5333 110.395 43.2545 111.84 40.597C113.445 37.7219 114.393 34.5271 114.617 31.2419C114.841 27.9567 114.335 24.6628 113.135 21.5964C112.76 20.1689 111.88 18.9261 110.658 18.0984C109.437 17.2706 107.956 16.9142 106.491 17.0953C105.545 17.195 104.033 18.6068 104.017 19.4537C103.834 27.5589 103.967 35.5812 103.967 43.7028V43.5866Z" fill="#191C20"/>
<path d="M16.4704 5.05419V22.1117C21.8352 23.3407 25.4725 21.2314 27.15 15.302L27.9805 16.1987V30.7316L27.1335 31.7781C25.4725 25.9317 22.0345 23.6562 15.8892 25.367C16.238 30.1504 16.0718 35.2493 17.1847 40.0825C17.6331 42.0257 20.8553 43.4043 22.9646 45.0653H-0.287985C-0.305886 44.8054 -0.305886 44.5444 -0.287985 44.2846C5.57498 43.2881 5.77431 38.787 5.85736 34.3193C5.97362 27.8749 6.07328 21.414 5.85736 14.9698C5.72449 9.83758 6.78745 3.89157 -0.537109 1.78223H36.4844C36.4844 5.88464 37.1985 10.0867 35.4711 14.5213C32.1327 5.23686 25.5223 3.07772 16.4704 5.05419Z" fill="#191C20"/>
<path d="M32.4146 29.7684C32.2651 20.318 38.8921 13.3089 48.0602 13.1594C58.2747 13.0598 64.4201 19.0722 64.6693 29.4363C64.7679 31.6063 64.4262 33.7738 63.6649 35.8082C62.9034 37.8426 61.7381 39.7019 60.239 41.2739C58.7399 42.846 56.938 44.0983 54.942 44.9554C52.9461 45.8125 50.7973 46.2567 48.6249 46.2612C38.6597 46.5933 32.5143 40.3815 32.4146 29.7684ZM55.2686 29.7684C54.5205 25.9073 53.5332 22.0965 52.3122 18.358C51.8601 17.5704 51.2292 16.9 50.4705 16.4009C49.7117 15.9018 48.8462 15.588 47.944 15.4848C47.0989 15.6206 46.3006 15.9631 45.6197 16.4818C44.9388 17.0004 44.3965 17.6791 44.041 18.4577C41.2882 25.7039 41.395 33.7261 44.3398 40.8965C44.7601 41.7101 45.3737 42.4079 46.1266 42.9292C46.8794 43.4504 47.7488 43.779 48.6582 43.8861C49.6032 43.6681 50.4866 43.2399 51.2428 42.633C51.9992 42.0263 52.6087 41.2568 53.0263 40.3815C54.027 36.9107 54.7599 33.3681 55.2187 29.7851L55.2686 29.7684Z" fill="#191C20"/>
<path d="M156.185 28.2563H137.417C136.238 39.102 143.563 43.7026 155.471 40.0154C154.025 43.7524 148.827 46.4929 142.964 46.2603C136.769 45.9946 131.62 43.47 128.996 37.6237C126.123 31.1961 126.339 24.7186 130.856 18.9885C135.025 13.6736 140.822 12.3449 147.216 13.6736C153.328 14.9691 156.983 20.9816 156.185 28.2563ZM147.15 25.632C146.86 23.119 146.405 20.6279 145.787 18.1746C145.422 17.0618 144.127 15.5337 143.164 15.5006C142.448 15.5165 141.747 15.6973 141.114 16.0285C140.48 16.3598 139.931 16.8328 139.51 17.4106C138.308 20.0738 137.303 22.8216 136.503 25.632H147.15Z" fill="#191C20"/>
<path d="M159.491 33.9864C160.853 36.3781 161.335 38.0722 162.464 38.969C164.367 40.8062 166.629 42.231 169.108 43.1545C169.706 43.3467 170.339 43.4093 170.964 43.3381C171.589 43.2669 172.192 43.0634 172.732 42.7414C173.272 42.4194 173.739 41.9861 174.099 41.4702C174.459 40.9544 174.705 40.3679 174.821 39.7497C175.552 37.0258 174.107 35.2652 171.765 34.169C169.423 33.0728 167.446 32.4252 165.321 31.4785C163.558 30.8422 162.056 29.6433 161.044 28.0671C160.032 26.4908 159.568 24.6253 159.724 22.7587C159.907 18.5401 162.247 15.3179 166.001 14.5372C170.509 13.5364 175.174 13.4798 179.704 14.3712C184.521 15.4508 181.181 19.8354 182.295 22.6757L181.033 23.1074C180.558 21.9146 179.914 20.7961 179.123 19.7857C177.461 18.2411 175.801 16.3144 173.825 15.8161C172.346 15.4341 169.323 16.6465 168.842 17.859C168.589 18.833 168.571 19.8529 168.791 20.8348C169.011 21.8167 169.461 22.7323 170.103 23.506C171.765 25.167 174.373 25.8148 176.648 26.7448C181.797 28.8542 184.072 31.7276 183.79 36.1122C183.712 38.3962 182.84 40.5816 181.325 42.2917C179.809 44.0017 177.744 45.1292 175.485 45.4798C173.1 46.1513 170.614 46.393 168.145 46.194C158.146 44.8985 158.511 46.3434 159.491 33.9864Z" fill="#191C20"/>
<path d="M78.9206 13.2417V19.1878C82.5413 14.8362 86.0458 11.4313 92.2077 13.9559L89.1351 21.7788C88.6037 21.9283 88.3046 22.1276 88.1054 22.0611C80.0832 19.7359 78.8044 20.6161 78.7545 28.7047C78.7545 31.3123 78.7545 33.9199 78.7545 36.511C78.8873 42.2909 79.1531 42.6563 84.2188 45.0645H64.7365C71.596 40.2147 71.6957 20.367 64.4375 16.0818L78.9206 13.2417Z" fill="#191C20"/>
</g>
</g>
</g>
</g>
<defs>
<clipPath id="clip0_178_13006">
<rect width="184.19" height="46.38" fill="white" transform="translate(0.810547 0.469727)"/>
</clipPath>
<clipPath id="clip1_178_13006">
<rect width="184.19" height="46.38" fill="white" transform="translate(0.810547 0.469727)"/>
</clipPath>
<clipPath id="clip2_178_13006">
<rect width="184.156" height="46.38" fill="white" transform="translate(0.827148 0.469727)"/>
</clipPath>
</defs>
</svg>
