<svg width="72" height="73" viewBox="0 0 72 73" fill="none" xmlns="http://www.w3.org/2000/svg">
<rect width="72" height="73" rx="15" fill="black"/>
<g clip-path="url(#clip0_938_23750)">
<path d="M45.585 27.4301L33.4855 41.0347L27.4357 36.4999M37.5799 55.7991C36.8849 56.067 36.115 56.067 35.4199 55.7991C29.9968 53.7179 25.3328 50.0419 22.044 45.2559C18.7553 40.4699 16.9965 34.7995 17 28.9935V19.9984C17 19.2032 17.3161 18.4405 17.8787 17.8782C18.4413 17.3159 19.2044 17 20 17H52.9999C53.7955 17 54.5586 17.3159 55.1213 17.8782C55.6839 18.4405 56 19.2032 56 19.9984V28.9935C56.0033 34.7995 54.2447 40.4699 50.956 45.2559C47.667 50.0419 43.0031 53.7179 37.5799 55.7991Z" stroke="#BDDEB4" stroke-width="1.43" stroke-linecap="round" stroke-linejoin="round"/>
</g>
<defs>
<clipPath id="clip0_938_23750">
<rect width="41" height="41" fill="white" transform="translate(16 16)"/>
</clipPath>
</defs>
</svg>
