<svg width="80" height="64" viewBox="0 0 80 64" fill="none" xmlns="http://www.w3.org/2000/svg">
<g clip-path="url(#clip0_178_11903)">
<g clip-path="url(#clip1_178_11903)">
<g clip-path="url(#clip2_178_11903)">
<mask id="mask0_178_11903" style="mask-type:luminance" maskUnits="userSpaceOnUse" x="0" y="0" width="80" height="64">
<path d="M79.8121 0H0.197266V63.33H79.8121V0Z" fill="white"/>
</mask>
<g mask="url(#mask0_178_11903)">
<path d="M35.1495 30.6679C35.1172 30.0982 35.0707 29.6489 35.0707 29.1949C35.0707 20.2687 35.0707 11.3378 35.043 2.41152C35.043 1.28589 35.2885 0.873628 36.5068 0.906058C39.8188 0.9987 43.1308 0.906049 46.4428 0.966276C47.0352 0.99937 47.6009 1.22368 48.0548 1.60552C49.3565 2.73578 51.0473 3.76412 51.6865 5.2279C52.3257 6.69168 51.9088 8.62331 51.9134 10.3465C51.9134 15.5067 51.9134 20.6624 51.9134 25.818C51.9058 26.5733 51.6224 27.2998 51.1168 27.8609C49.3704 30.1306 47.1979 30.9505 44.3306 30.6865C41.7365 30.4503 39.1008 30.6587 36.4836 30.6865L35.1495 30.6679ZM44.1685 25.2576V6.76116L42.9502 6.84917V25.2576H44.1685Z" fill="#191C20"/>
<path d="M17.9018 0.952571H25.2856C25.2856 1.45285 25.3458 1.87902 25.3458 2.34224V24.0626C25.3458 25.4013 25.406 25.4523 26.8466 25.1095V0.90625C29.3017 0.90625 31.6409 0.90625 33.9755 0.934043C34.1608 0.934043 34.4064 1.28609 34.499 1.52233C34.5564 1.78554 34.5673 2.05673 34.5315 2.3237C34.5315 10.1429 34.5315 17.9621 34.5315 25.7812C34.5072 26.5367 34.2035 27.2564 33.6791 27.8008C31.8911 30.0845 29.6676 31.099 26.7772 30.5802C26.3919 30.5454 26.0043 30.5454 25.619 30.5802C21.2602 30.5802 21.2509 30.5802 18.3327 27.4025C18.0281 27.0733 17.8451 26.65 17.8138 26.2027C17.786 18.0006 17.786 9.79701 17.8138 1.59182C17.8303 1.37716 17.8597 1.1637 17.9018 0.952571Z" fill="#191C20"/>
<path d="M0.301714 48.8259C0.301714 45.5139 0.269287 42.2065 0.329506 38.8991C0.363887 38.3126 0.603259 37.7567 1.0058 37.3288C2.21481 36.0967 3.35433 34.5494 4.85516 33.9149C6.26798 33.3265 8.1255 33.8825 9.76063 33.7064C11.771 33.4887 13.1468 34.3132 14.6662 35.5593C16.7182 37.2222 17.4455 39.0288 17.339 41.6552C17.1259 47.339 17.2602 53.0412 17.288 58.7342C17.2669 59.4111 16.9847 60.0534 16.5006 60.5268C14.5087 62.9773 12.0119 63.5193 8.90835 63.5517C5.73528 63.5795 3.27095 62.8568 1.19109 60.4991C0.900723 60.2347 0.668446 59.9129 0.508967 59.5541C0.349489 59.1953 0.266287 58.8073 0.264648 58.4146C0.329499 55.2137 0.301714 52.0406 0.301714 48.8259ZM9.46886 57.9746V39.6171C8.50072 39.2605 8.1533 39.5615 8.15793 40.5435C8.18572 46.0466 8.15793 51.5543 8.15793 57.0574C8.17762 57.3678 8.21318 57.677 8.26447 57.9838L9.46886 57.9746Z" fill="#191C20"/>
<path d="M18.2195 33.7949H25.5523V57.9611H27.104V33.8505H34.7843C34.7843 34.221 34.8398 34.6287 34.8398 35.0364C34.8398 42.9111 34.8398 50.8229 34.8074 58.7162C34.7277 59.3686 34.4624 59.9843 34.0431 60.4903C32.2597 63.0148 29.7908 63.9413 26.7612 63.4225C26.6072 63.4086 26.4522 63.4086 26.298 63.4225C21.777 63.4225 21.7678 63.4225 18.6827 60.1799C18.37 59.8608 18.177 59.4437 18.1361 58.9987C18.1083 50.7565 18.1083 42.5174 18.1361 34.2813C18.1512 34.1173 18.179 33.9546 18.2195 33.7949Z" fill="#191C20"/>
<path d="M9.32538 6.90903C8.47766 6.62647 8.15804 6.85808 8.1673 7.60386C8.19046 8.99353 8.1673 10.3832 8.1673 11.7728C8.1673 12.3843 8.37574 12.7317 9.02425 12.7271C9.14006 12.7271 9.2559 12.7595 9.367 12.7549C12.7717 12.5325 14.5319 15.0061 16.5099 17.1091C16.7017 17.3907 16.7945 17.728 16.7739 18.068C16.7739 20.8011 16.811 23.5386 16.7739 26.267C16.6787 26.7325 16.4931 27.1748 16.2274 27.5687C16.181 27.6659 16.0513 27.7169 15.9772 27.8049C15.152 28.9404 14.0154 29.8124 12.705 30.3155C11.3946 30.8186 9.96655 30.9313 8.59346 30.6398C8.40079 30.6236 8.2071 30.6236 8.01443 30.6398C3.68795 30.6398 3.68332 30.6398 0.806725 27.3972C0.549285 27.1255 0.38677 26.7778 0.343504 26.4059C0.292551 24.9839 0.283286 23.5572 0.343504 22.1351C0.38487 21.9604 0.469895 21.799 0.590608 21.6662C0.711322 21.5333 0.863772 21.4333 1.0337 21.3754C3.14598 21.3152 5.26755 21.3106 7.38446 21.3754C7.65776 21.3754 8.09781 21.8849 8.1395 22.2045C8.25067 23.0383 8.1395 23.9 8.21826 24.7384C8.21826 24.9561 8.62125 25.146 8.83433 25.3452C9.00109 25.1414 9.29752 24.9376 9.29752 24.7291C9.33461 22.8762 9.32068 21.0511 9.32068 19.1705C8.30163 19.0825 7.39372 18.9296 6.48118 18.9435C6.0223 18.9405 5.56915 18.8413 5.15104 18.6522C4.73293 18.463 4.35917 18.1882 4.05391 17.8456C3.97052 17.7669 3.88251 17.6974 3.7945 17.6187C2.66424 16.6367 1.0893 15.8538 0.524168 14.6124C-0.0409614 13.371 0.297185 11.6015 0.301817 10.0682C0.301817 8.42376 -0.0455998 6.59404 0.561218 5.19048C1.16804 3.78692 2.70129 2.82342 3.92882 1.78118C4.46893 1.33391 5.13367 1.06381 5.83267 1.0076C7.7504 0.90569 9.68202 1.0076 11.6044 0.952012C11.9841 0.905735 12.3691 0.963619 12.7183 1.11948C13.0676 1.27534 13.3679 1.52329 13.5869 1.83677C13.6363 1.89679 13.6905 1.95257 13.7491 2.00352C16.9407 5.34335 16.9268 5.34334 16.7924 9.96629C16.7924 10.6797 16.6118 11.0224 15.8197 11.0039C13.9668 10.9576 12.1139 10.9576 10.261 11.0039C9.46896 11.0039 9.26974 10.6843 9.29752 9.9709C9.35777 8.96109 9.32538 7.94665 9.32538 6.90903Z" fill="#191C20"/>
<path d="M48.3514 54.1719H56.078V57.9749L57.1943 58.049V51.9206C56.3977 51.789 55.5928 51.7146 54.7856 51.6983C54.2521 51.7225 53.7196 51.6311 53.2248 51.4305C52.7298 51.2298 52.2841 50.9246 51.9182 50.5355C50.8065 49.4795 49.1389 48.7244 48.5645 47.4505C47.9901 46.1767 48.3421 44.4442 48.3421 42.9063C48.3421 41.2202 47.9577 39.3395 48.5737 37.8989C49.1898 36.4583 50.7879 35.5041 52.034 34.4155C52.482 34.0343 53.0406 33.807 53.6275 33.767C55.7444 33.6929 57.8613 33.7021 59.9782 33.767C60.4809 33.8521 60.9569 34.0535 61.3679 34.3553C61.6087 34.5463 61.8208 34.771 61.9979 35.0223C65.0273 38.2881 65.0041 38.2649 64.8883 42.7025C64.8652 43.5225 64.5687 43.7679 63.7906 43.7494C61.9839 43.7124 60.1728 43.717 58.3616 43.7494C57.6343 43.7494 57.3147 43.5409 57.3379 42.772C57.3581 41.8867 57.3132 41.0011 57.2035 40.1224C57.1757 39.8908 56.8144 39.7009 56.6106 39.4924C56.4484 39.6962 56.1474 39.9001 56.1474 40.1131C56.1057 41.614 56.0918 43.1148 56.1474 44.611C56.1474 44.8843 56.5412 45.1529 56.7728 45.3985C56.8666 45.4701 56.9842 45.5032 57.1016 45.4911C60.5248 45.2456 62.3916 47.6914 64.4391 49.7852C64.7164 50.1386 64.8621 50.5775 64.8513 51.0266C64.8883 53.6438 64.9069 56.261 64.8513 58.8736C64.8062 59.4257 64.5645 59.9434 64.1704 60.3327C60.8722 63.4362 60.8584 63.4224 56.2956 63.4224H56.1798C51.7607 63.4224 51.7561 63.4224 48.8332 60.1798C48.604 59.9786 48.4423 59.7118 48.3699 59.4155C48.3329 57.6924 48.3514 55.9692 48.3514 54.1719Z" fill="#191C20"/>
<path d="M35.5812 33.7949H47.9584V39.4601H43.2521V44.8288C44.2434 44.8288 45.267 44.8798 46.2815 44.8288C47.1107 44.7779 47.3469 45.1067 47.3237 45.8942C47.2728 47.4599 47.3237 49.0302 47.3237 50.7303H43.2521V58.0631C44.475 58.0631 45.6933 58.114 46.9022 58.0631C47.8287 58.0167 48.1159 58.3502 48.065 59.2581C47.9955 60.5922 48.065 61.9309 48.065 63.4271H45.8554C42.7332 63.4271 39.6111 63.4271 36.4891 63.4271C35.7618 63.4271 35.4561 63.2187 35.4561 62.4498C35.4746 53.1297 35.4746 43.8082 35.4561 34.4851C35.4856 34.253 35.5274 34.0226 35.5812 33.7949Z" fill="#191C20"/>
<path d="M76.238 39.455V63.4175C74.385 63.4175 72.6526 63.4175 70.897 63.4175C68.2427 63.385 68.5809 63.8436 68.5809 61.1013C68.5484 54.4032 68.5438 47.705 68.53 41.0022V39.5338H65.1484V33.8223H79.6704C79.6704 35.5409 79.6704 37.2594 79.6334 38.9733C79.6334 39.1401 79.1702 39.4366 78.8968 39.4366C78.0723 39.4921 77.2293 39.455 76.238 39.455Z" fill="#191C20"/>
</g>
</g>
</g>
</g>
<defs>
<clipPath id="clip0_178_11903">
<rect width="79.63" height="63.33" fill="white" transform="translate(0.189453)"/>
</clipPath>
<clipPath id="clip1_178_11903">
<rect width="79.63" height="63.33" fill="white" transform="translate(0.189453)"/>
</clipPath>
<clipPath id="clip2_178_11903">
<rect width="79.6149" height="63.33" fill="white" transform="translate(0.197266)"/>
</clipPath>
</defs>
</svg>
