<svg width="22" height="25" viewBox="0 0 22 25" fill="none" xmlns="http://www.w3.org/2000/svg">
<path d="M17.8182 13.2949C17.8305 12.3367 18.0851 11.3971 18.5581 10.5637C19.0311 9.73026 19.7073 9.03002 20.5237 8.52812C20.005 7.78744 19.3209 7.17789 18.5255 6.74788C17.7301 6.31788 16.8453 6.07926 15.9416 6.05098C14.0137 5.84863 12.1448 7.20458 11.1624 7.20458C10.1609 7.20458 8.64838 6.07107 7.0196 6.10459C5.96606 6.13862 4.9393 6.44499 4.03937 6.99382C3.13943 7.54266 2.39701 8.31525 1.88444 9.23633C-0.335894 13.0805 1.32028 18.7301 3.44717 21.8375C4.51131 23.359 5.75497 25.0587 7.38228 24.9984C8.9747 24.9324 9.56944 23.983 11.4916 23.983C13.396 23.983 13.954 24.9984 15.6143 24.9601C17.323 24.9323 18.3996 23.4317 19.4264 21.8958C20.191 20.8116 20.7793 19.6133 21.1696 18.3454C20.1769 17.9255 19.3297 17.2227 18.7338 16.3246C18.1378 15.4265 17.8194 14.3728 17.8182 13.2949Z" fill="black"/>
<path d="M14.6823 4.00742C15.614 2.88898 16.073 1.45141 15.9618 0C14.5384 0.1495 13.2236 0.82979 12.2794 1.90532C11.8177 2.43075 11.4641 3.04201 11.2388 3.70418C11.0135 4.36634 10.9209 5.06642 10.9663 5.76438C11.6783 5.77171 12.3826 5.6174 13.0263 5.31306C13.6699 5.00873 14.2362 4.56231 14.6823 4.00742Z" fill="black"/>
</svg>
