<svg width="23" height="25" viewBox="0 0 23 25" fill="none" xmlns="http://www.w3.org/2000/svg">
<path d="M0.738193 0.395039C0.419698 0.775849 0.25888 1.26404 0.288686 1.75959V23.2404C0.258793 23.736 0.419622 24.2242 0.738193 24.605L0.810068 24.675L12.8432 12.642V12.3581L0.810068 0.324524L0.738193 0.395039Z" fill="url(#paint0_linear_79_420)"/>
<path d="M16.8545 16.6547L12.8438 12.642V12.3581L16.8555 8.34631L16.9459 8.39789L21.6982 11.0981C23.0557 11.8693 23.0557 13.1312 21.6982 13.9029L16.9459 16.6031L16.8545 16.6547Z" fill="url(#paint1_linear_79_420)"/>
<path d="M16.9455 16.6026L12.8433 12.5001L0.738281 24.605C1.01487 24.8489 1.36808 24.9884 1.73672 24.9993C2.10535 25.0102 2.46618 24.8918 2.75669 24.6646L16.9455 16.6026Z" fill="url(#paint2_linear_79_420)"/>
<path d="M16.9455 8.39738L2.75669 0.335391C2.46618 0.108203 2.10535 -0.0102021 1.73672 0.000689668C1.36808 0.0115814 1.01487 0.151084 0.738281 0.395027L12.8433 12.5L16.9455 8.39738Z" fill="url(#paint3_linear_79_420)"/>
<path opacity="0.2" d="M16.8551 16.5123L2.75669 24.5227C2.47737 24.7353 2.13645 24.8513 1.7854 24.8532C1.43435 24.8551 1.09222 24.7427 0.810641 24.5331L0.738281 24.6054L0.810156 24.6755L0.810641 24.675C1.09217 24.8847 1.43433 24.9972 1.7854 24.9953C2.13648 24.9934 2.47742 24.8773 2.75669 24.6646L16.9455 16.6026L16.8551 16.5123Z" fill="black"/>
<path opacity="0.12" d="M0.738171 24.4635C0.419706 24.0827 0.258892 23.5945 0.288664 23.099V23.2409C0.258874 23.7364 0.419691 24.2246 0.738171 24.6054L0.810531 24.5331L0.738171 24.4635Z" fill="black"/>
<path opacity="0.12" d="M21.6982 13.7605L16.8555 16.5123L16.9459 16.6026L21.6982 13.9024C21.9777 13.7811 22.2196 13.587 22.3987 13.3404C22.5778 13.0939 22.6875 12.8038 22.7163 12.5004C22.6563 12.7751 22.5329 13.0321 22.3562 13.2508C22.1795 13.4695 21.9541 13.644 21.6982 13.7605Z" fill="black"/>
<path opacity="0.25" d="M2.75698 0.477764L21.698 11.2395C21.9541 11.3559 22.1795 11.5305 22.3563 11.7493C22.533 11.9681 22.6563 12.2252 22.7162 12.5C22.6875 12.1965 22.5779 11.9063 22.3988 11.6596C22.2197 11.413 21.9777 11.2189 21.698 11.0976L2.75698 0.335861C1.39952 -0.43543 0.289062 0.205223 0.289062 1.76004V1.90195C0.289062 0.347224 1.39952 -0.29343 2.75698 0.477764Z" fill="white"/>
<defs>
<linearGradient id="paint0_linear_79_420" x1="11.7761" y1="1.53309" x2="-4.52425" y2="17.8335" gradientUnits="userSpaceOnUse">
<stop stop-color="#00A0FF"/>
<stop offset="0.00657" stop-color="#00A1FF"/>
<stop offset="0.2601" stop-color="#00BEFF"/>
<stop offset="0.5122" stop-color="#00D2FF"/>
<stop offset="0.7604" stop-color="#00DFFF"/>
<stop offset="1" stop-color="#00E3FF"/>
</linearGradient>
<linearGradient id="paint1_linear_79_420" x1="23.4656" y1="12.5005" x2="-0.0362712" y2="12.5005" gradientUnits="userSpaceOnUse">
<stop stop-color="#FFE000"/>
<stop offset="0.4087" stop-color="#FFBD00"/>
<stop offset="0.7754" stop-color="#FFA500"/>
<stop offset="1" stop-color="#FF9C00"/>
</linearGradient>
<linearGradient id="paint2_linear_79_420" x1="14.7165" y1="14.7292" x2="-7.38813" y2="36.8338" gradientUnits="userSpaceOnUse">
<stop stop-color="#FF3A44"/>
<stop offset="1" stop-color="#C31162"/>
</linearGradient>
<linearGradient id="paint3_linear_79_420" x1="-2.30965" y1="-6.75534" x2="7.56097" y2="3.11528" gradientUnits="userSpaceOnUse">
<stop stop-color="#32A071"/>
<stop offset="0.0685" stop-color="#2DA771"/>
<stop offset="0.4762" stop-color="#15CF74"/>
<stop offset="0.8009" stop-color="#06E775"/>
<stop offset="1" stop-color="#00F076"/>
</linearGradient>
</defs>
</svg>
