<svg width="18" height="18" viewBox="0 0 18 18" fill="none" xmlns="http://www.w3.org/2000/svg">
<path d="M4.59341 16.5714H2.1978C1.88012 16.5714 1.57546 16.4452 1.35083 16.2206C1.1262 15.996 1 15.6913 1 15.3736V5.79122M1 5.79122H16.5714M1 5.79122L3.64714 1.5989C3.74958 1.42131 3.89588 1.27299 4.07205 1.16813C4.24822 1.06327 4.44835 1.00538 4.6533 1H12.9181C13.1231 1.00538 13.3232 1.06327 13.4994 1.16813C13.6755 1.27299 13.8219 1.42131 13.9243 1.5989L16.5714 5.79122M16.5714 5.79122V15.3736C16.5714 15.6913 16.4452 15.996 16.2206 16.2206C15.996 16.4452 15.6913 16.5714 15.3736 16.5714H12.978M5.79116 12.3791L8.78567 9.38461M8.78567 9.38461L11.7802 12.3791M8.78567 9.38461L8.78576 16.5714M8.78576 1V5.79121" stroke="#E4A2BE" stroke-width="1.42857" stroke-linecap="round" stroke-linejoin="round"/>
</svg>
