<svg width="19" height="20" viewBox="0 0 19 20" fill="none" xmlns="http://www.w3.org/2000/svg">
<path d="M13.6396 11.7667C13.4424 11.9579 13.3517 12.2344 13.3967 12.5055L14.0737 16.2526C14.1309 16.5702 13.9968 16.8916 13.731 17.0752C13.4706 17.2656 13.124 17.2884 12.8399 17.1361L9.46676 15.3768C9.34947 15.3143 9.21923 15.2808 9.08595 15.277H8.87956C8.80796 15.2877 8.7379 15.3105 8.67392 15.3456L5.29998 17.1133C5.13319 17.197 4.94431 17.2268 4.75924 17.197C4.30836 17.1117 4.00752 16.6822 4.0814 16.229L4.75924 12.4819C4.80417 12.2085 4.71354 11.9305 4.51628 11.7363L1.7661 9.07059C1.53609 8.84744 1.45612 8.51233 1.56123 8.20997C1.66328 7.90837 1.92375 7.68826 2.2383 7.63875L6.02351 7.08963C6.3114 7.05992 6.56426 6.88475 6.69373 6.6258L8.36166 3.20614C8.40126 3.12998 8.45229 3.05991 8.51398 3.00051L8.58253 2.94719C8.61832 2.90759 8.65945 2.87484 8.70515 2.84818L8.78816 2.81772L8.91764 2.7644H9.23827C9.52464 2.79411 9.77673 2.96547 9.90849 3.22137L11.5985 6.6258C11.7204 6.87485 11.9572 7.04774 12.2306 7.08963L16.0159 7.63875C16.3357 7.68445 16.6031 7.90532 16.7089 8.20997C16.8087 8.51537 16.7226 8.85049 16.4881 9.07059L13.6396 11.7667Z" fill="#F6973F"/>
</svg>
