<svg width="20" height="20" viewBox="0 0 20 20" fill="none" xmlns="http://www.w3.org/2000/svg">
<path d="M14.6162 11.7667C14.4189 11.9579 14.3283 12.2344 14.3732 12.5055L15.0503 16.2526C15.1074 16.5702 14.9734 16.8916 14.7076 17.0752C14.4471 17.2656 14.1006 17.2884 13.8165 17.1361L10.4433 15.3768C10.326 15.3143 10.1958 15.2808 10.0625 15.277H9.85612C9.78453 15.2877 9.71446 15.3105 9.65048 15.3456L6.27654 17.1133C6.10975 17.197 5.92087 17.2268 5.7358 17.197C5.28492 17.1117 4.98409 16.6822 5.05796 16.229L5.7358 12.4819C5.78073 12.2085 5.6901 11.9305 5.49284 11.7363L2.74266 9.07059C2.51266 8.84744 2.43269 8.51233 2.53779 8.20997C2.63985 7.90837 2.90032 7.68826 3.21486 7.63875L7.00007 7.08963C7.28796 7.05992 7.54082 6.88475 7.67029 6.6258L9.33822 3.20614C9.37783 3.12998 9.42885 3.05991 9.49054 3.00051L9.55909 2.94719C9.59488 2.90759 9.63601 2.87484 9.68171 2.84818L9.76472 2.81772L9.8942 2.7644H10.2148C10.5012 2.79411 10.7533 2.96547 10.8851 3.22137L12.5751 6.6258C12.6969 6.87485 12.9338 7.04774 13.2072 7.08963L16.9924 7.63875C17.3123 7.68445 17.5796 7.90532 17.6855 8.20997C17.7853 8.51537 17.6992 8.85049 17.4646 9.07059L14.6162 11.7667Z" fill="#FDE0C6"/>
</svg>
