<svg width="74" height="32" viewBox="0 0 74 32" fill="none" xmlns="http://www.w3.org/2000/svg">
<path fill-rule="evenodd" clip-rule="evenodd" d="M13.467 10L6.60742 21.826H14.8201L15.8376 19.941H18.1646L19.1835 21.827H28.222V20.387L29.0281 21.827H33.706L34.5107 20.357V21.827H53.3107L55.5967 19.99L57.7375 21.827L67.3931 21.842L60.5111 15.946L67.3931 10H57.8868L55.6615 11.803L53.5882 10H33.1364L31.3789 13.053L29.5831 10H21.3889V11.39L20.4771 10H13.4696H13.467ZM15.0566 11.68H19.0606L23.6102 19.699V11.679H27.9961L31.5111 17.429L34.7486 11.679H39.1146V20.166H36.4585L36.4374 13.516L32.5656 20.166H30.191L26.2994 13.516V20.166H20.8366L19.8019 18.263H14.2056L13.1723 20.164H10.2466L15.0566 11.679V11.68ZM52.3381 11.68H41.542V20.16H52.1703L55.5967 17.35L58.899 20.16H62.3506L57.3331 15.945L62.3506 11.679H59.0483L55.639 14.458L52.3381 11.679V11.68ZM17.0031 13.115L15.161 16.505H18.8452L17.0044 13.115H17.0031ZM44.2074 14.985V13.435H50.944L53.8829 15.912L50.8132 18.404H44.2074V16.712H50.097V14.986H44.2074V14.985Z" fill="#016FD0"/>
</svg>
