<svg width="71" height="32" viewBox="0 0 71 32" fill="none" xmlns="http://www.w3.org/2000/svg">
<g clip-path="url(#clip0_1575_6152)">
<path d="M27.6324 9.00008C28.6773 8.99548 29.7133 9.19135 30.6844 9.57708L30.2214 12.5031L29.9134 12.3601C29.1204 11.9927 28.2529 11.8147 27.3794 11.8401C26.0364 11.8401 25.4334 12.4311 25.4194 13.0081C25.4194 13.6431 26.1494 14.0611 27.3394 14.6811C29.2994 15.6471 30.2074 16.8291 30.1944 18.3711C30.1664 21.1841 27.8424 23.0001 24.2724 23.0001C22.7464 22.9851 21.2764 22.6531 20.4784 22.2791L20.9544 19.2361L21.4024 19.4531C22.5084 19.9581 23.2364 20.1731 24.5944 20.1731C25.5744 20.1731 26.6244 19.7551 26.6374 18.8481C26.6374 18.2561 26.1904 17.8241 24.8744 17.1601C23.5864 16.5111 21.8644 15.4301 21.8924 13.4841C21.9064 10.8451 24.2724 9.00008 27.6324 9.00008ZM14.9484 22.7981H18.3504L20.4784 9.24608H17.0764L14.9484 22.7981Z" fill="#00579F"/>
<path fill-rule="evenodd" clip-rule="evenodd" d="M39.4054 9.24608H36.7744C35.9624 9.24608 35.3464 9.49108 34.9954 10.3701L29.9424 22.7981H33.5124L34.2264 20.7651H38.5944C38.6924 21.2411 39.0004 22.7981 39.0004 22.7981H42.1504L39.4054 9.24608ZM35.2054 17.9961L36.5654 14.2061C36.5584 14.2161 36.6034 14.0901 36.6694 13.9011C36.7674 13.6211 36.9124 13.2081 37.0124 12.9081L37.2494 14.0751C37.2494 14.0751 37.8944 17.3191 38.0344 17.9971H35.2064L35.2054 17.9961Z" fill="#00579F"/>
<path d="M8.77439 18.4871L12.1064 9.24608H15.7044L10.3564 22.7841H6.75839L3.70639 10.9321C5.86239 12.1001 7.79439 14.4501 8.41039 16.6121L8.77439 18.4871Z" fill="#00579F"/>
<path d="M5.68039 9.24608H0.206391L0.150391 9.51908C4.42039 10.6441 7.24839 13.3551 8.41039 16.6131L7.22039 10.3851C7.02439 9.51908 6.42239 9.27508 5.68039 9.24508V9.24608Z" fill="#FAA61A"/>
</g>
<defs>
<clipPath id="clip0_1575_6152">
<rect width="70.35" height="32.0001" fill="white" transform="translate(0.150391)"/>
</clipPath>
</defs>
</svg>
